<svg width="668" height="668" viewBox="0 0 668 668" fill="none" xmlns="http://www.w3.org/2000/svg">
<path fill-rule="evenodd" clip-rule="evenodd" d="M175.669 13.594C218.959 3.97335 271.477 0.666687 334 0.666687C396.523 0.666687 449.04 3.97335 492.33 13.594C536 23.299 572.293 39.8667 600.213 67.786C628.133 95.7053 644.7 132.001 654.407 175.669C664.027 218.959 667.333 271.477 667.333 334C667.333 396.523 664.027 449.04 654.407 492.33C644.7 536 628.133 572.293 600.213 600.213C572.293 628.133 536 644.7 492.33 654.407C449.04 664.027 396.523 667.333 334 667.333C271.477 667.333 218.959 664.027 175.669 654.407C132.001 644.7 95.7053 628.133 67.786 600.213C39.8667 572.293 23.299 536 13.594 492.33C3.97335 449.04 0.666687 396.523 0.666687 334C0.666687 271.477 3.97335 218.959 13.594 175.669C23.299 132.001 39.8667 95.7053 67.786 67.786C95.7053 39.8667 132.001 23.299 175.669 13.594ZM185.053 170.144L185.122 170.118L185.201 170.089L185.362 170.03L185.694 169.912L186.394 169.675C186.878 169.516 187.394 169.358 187.943 169.203C189.043 168.892 190.269 168.594 191.622 168.331C207.528 165.243 234.103 168.002 272.44 194.019C273.393 194.664 274.35 195.324 275.313 195.997C276.63 195.676 277.947 195.366 279.263 195.067C315.397 186.87 352.603 186.87 388.737 195.067C390.053 195.366 391.37 195.676 392.683 195.997C393.647 195.323 394.603 194.664 395.553 194.019C433.737 168.092 460.203 165.237 476.16 168.319C477.54 168.585 478.793 168.889 479.913 169.207C480.473 169.366 481 169.528 481.493 169.691L482.207 169.934L482.547 170.055L482.71 170.116L482.79 170.146L482.83 170.161L482.87 170.176C491.847 173.55 498.933 180.626 502.323 189.597C502.593 190.313 502.86 191.029 503.117 191.745C512.137 216.743 514.63 243.932 510.567 270.163C510.323 271.737 510.053 273.307 509.763 274.873C510.75 276.457 511.707 278.057 512.637 279.677C526.98 304.693 534.34 333.85 533.987 363.37C533.95 427.043 517.203 472.367 486.42 502.423C456.29 531.843 417.9 541.403 386.143 545.257L386.097 545.263C350.967 551.143 316.933 551.443 281.693 546.2L280.68 546.063C249.05 541.767 210.982 531.717 181.15 502.143C150.694 471.95 134.049 426.75 134.012 363.37C133.661 333.85 141.021 304.693 155.364 279.677C156.291 278.06 157.246 276.463 158.231 274.883C157.938 273.313 157.669 271.74 157.424 270.163C153.36 244.052 155.766 216.991 164.618 192.059C164.895 191.277 165.18 190.497 165.47 189.719C168.85 180.666 176.001 173.522 185.053 170.144Z" fill="#323232"/>
</svg>
