<svg width="21" height="24" viewBox="0 0 21 24" fill="none" xmlns="http://www.w3.org/2000/svg">
<path d="M20.0821 14.355C20.0821 13.613 19.5181 13.01 18.8221 13.01H8.75811C8.06211 13.01 7.49811 13.614 7.49811 14.355C7.49811 15.097 8.06211 15.701 8.75811 15.701H18.8221C19.5181 15.701 20.0821 15.098 20.0821 14.355Z" fill="#B3B1B0"/>
<path d="M20.0821 14.355H7.49811C7.49811 15.097 8.06211 15.701 8.75811 15.701H18.8221C19.5181 15.701 20.0821 15.098 20.0821 14.355Z" fill="#9C9A99"/>
<path d="M2.86311 14.355H2.81711C2.83211 15.091 3.13211 15.829 3.71411 16.423C5.02311 17.759 6.35311 19.073 7.67411 20.397L7.87811 20.595C8.34711 20.898 8.35111 21.845 8.06011 22.266C7.75011 22.715 7.35011 22.995 6.78911 22.995C6.76911 22.995 6.74811 22.995 6.72711 22.994C6.52711 22.987 6.36311 22.907 6.19711 22.813C6.16211 22.793 6.12711 22.773 6.09311 22.751C7.04511 23.593 8.30311 24 9.68111 24C11.1651 24 12.5111 23.489 13.4851 22.506L16.0741 19.869C16.5841 19.355 16.5661 18.504 16.0351 17.969C15.7631 17.694 15.4081 17.556 15.0571 17.556C14.7251 17.556 14.3981 17.68 14.1511 17.93L11.4751 20.537C11.0131 21.004 10.3731 21.199 9.66711 21.199C8.96111 21.199 8.32111 21.004 7.85711 20.537L3.56011 16.174C3.10611 15.716 2.87211 15.052 2.86311 14.355Z" fill="#C98F1B"/>
<path d="M2.81711 14.355H0.000106812C0.00610681 15.84 0.595107 17.3 1.73911 18.456C3.06311 19.792 4.39611 21.119 5.72311 22.452C5.83611 22.566 5.95911 22.667 6.09311 22.752C6.12711 22.773 6.16111 22.794 6.19711 22.814C6.36311 22.908 6.52711 22.988 6.72711 22.995C6.74811 22.996 6.76811 22.996 6.78911 22.996C7.35011 22.996 7.75011 22.716 8.06011 22.267C8.35111 21.846 8.34611 20.899 7.87811 20.596L7.67411 20.398C6.35311 19.074 5.02211 17.76 3.71411 16.424C3.13211 15.83 2.83211 15.091 2.81711 14.355Z" fill="#060605"/>
<path d="M1.56511 18.187L5.87711 22.548C6.84911 23.527 8.19511 24 9.68111 24C11.1651 24 12.5111 23.489 13.4851 22.506L16.0741 19.869C16.5841 19.355 16.5661 18.504 16.0351 17.969C15.5051 17.434 14.6601 17.416 14.1511 17.93L11.4751 20.537C11.0131 21.004 10.3731 21.199 9.66711 21.199C8.96111 21.199 8.32111 21.004 7.85711 20.537L3.56011 16.174C3.09711 15.706 2.86311 15.024 2.86311 14.311C2.86311 13.598 3.09711 12.954 3.56011 12.487L7.84511 8.10698C8.30911 7.63898 8.96111 7.46198 9.66711 7.46198C10.3741 7.46198 11.0141 7.65698 11.4751 8.12398L14.1511 10.73C14.6611 11.245 15.5051 11.227 16.0361 10.692C16.5671 10.156 16.5851 9.30598 16.0751 8.79098L13.4861 6.15598C12.8381 5.50998 12.0151 5.03998 11.0941 4.82598L11.0611 4.81998L13.5081 2.31598C14.0201 1.80198 14.0021 0.949983 13.4711 0.414983C12.9411 -0.120017 12.0951 -0.138017 11.5841 0.376983L1.56511 10.476C0.591108 11.458 0.0821075 12.814 0.0821075 14.312C0.0821075 15.81 0.591108 17.206 1.56511 18.187Z" fill="#E7A41F"/>
<path d="M6.19711 22.814C6.02111 22.717 5.86511 22.595 5.72311 22.453C4.39611 21.12 3.06311 19.793 1.73911 18.457C-0.248895 16.448 -0.562895 13.521 0.954105 11.137C1.18811 10.767 1.48311 10.443 1.79311 10.133C5.00111 6.91901 8.20811 3.70301 11.4161 0.489009C12.0411 -0.136991 12.9131 -0.162991 13.4951 0.423009C14.0541 0.985009 14.0221 1.87801 13.4181 2.48801C12.6481 3.26401 11.8781 4.03801 11.1081 4.81301C11.0671 4.93501 10.9681 5.01301 10.8821 5.10001C10.0191 5.97701 9.13111 6.83001 8.28211 7.71901C8.17111 7.83401 8.02011 7.90501 7.91011 8.02401C6.48711 9.44701 5.04811 10.854 3.64511 12.296C2.50911 13.463 2.54911 15.234 3.71311 16.424C5.02211 17.76 6.35211 19.074 7.67311 20.398L7.87711 20.596C8.34611 20.899 8.35011 21.846 8.05911 22.267C7.73811 22.733 7.32011 23.017 6.72611 22.995C6.52711 22.987 6.36311 22.907 6.19711 22.814Z" fill="#070706"/>
<path d="M11.1031 4.826C11.0591 4.941 10.9651 5.016 10.8821 5.099C10.0191 5.976 9.1311 6.829 8.2821 7.718C8.1711 7.833 8.0201 7.904 7.9101 8.023C6.4871 9.446 5.0481 10.853 3.6451 12.295C3.0651 12.891 2.7921 13.644 2.8181 14.397H2.8641C2.8631 14.368 2.8621 14.339 2.8621 14.31C2.8621 13.597 3.0961 12.953 3.5591 12.486L7.8441 8.106C8.3081 7.638 8.9601 7.461 9.6661 7.461C10.3731 7.461 11.0131 7.656 11.4741 8.123L14.1501 10.729C14.3981 10.98 14.7261 11.104 15.0581 11.104C15.4081 11.104 15.7631 10.966 16.0351 10.691C16.5661 10.155 16.5841 9.305 16.0741 8.79L13.4851 6.155C12.8391 5.51 12.0201 5.041 11.1031 4.826ZM12.4821 0C12.2881 0.001 12.0961 0.045 11.9201 0.132C12.1031 0.049 12.2941 0.005 12.4821 0Z" fill="#EAB03C"/>
<path d="M12.5141 0C12.5041 0 12.4931 0 12.4831 0C12.2941 0.004 12.1041 0.049 11.9211 0.132C11.7431 0.213 11.5721 0.332 11.4171 0.488C8.20911 3.702 5.00111 6.918 1.79411 10.132C1.48411 10.442 1.19011 10.766 0.955109 11.136C0.303109 12.161 -0.0108906 13.287 0.00110941 14.398H2.81911C2.79311 13.645 3.06711 12.892 3.64611 12.296C5.04811 10.854 6.48811 9.447 7.91111 8.024C8.02211 7.905 8.17211 7.835 8.28311 7.719C9.13211 6.83 10.0201 5.977 10.8831 5.1C10.9661 5.016 11.0601 4.941 11.1041 4.827C11.1061 4.822 11.1071 4.818 11.1091 4.813C11.8791 4.038 12.6491 3.264 13.4191 2.488C14.0231 1.878 14.0561 0.985 13.4961 0.423C13.2151 0.14 12.8681 0 12.5141 0Z" fill="#272726"/>
</svg>
