<svg width="750" height="750" viewBox="0 0 750 750" fill="none" xmlns="http://www.w3.org/2000/svg">
<path fill-rule="evenodd" clip-rule="evenodd" d="M117.9 705.445L31.916 598.327C11.2282 572.557 0 540.865 0 508.248V120.375C0 71.516 39.0898 30.9742 89.5177 27.5312L488.303 0.304492C517.275 -1.67346 546.07 6.02724 569.87 22.1175L709.98 116.848C735.063 133.805 750 161.525 750 191.107V632.08C750 679.895 711.565 719.482 662.19 722.522L219.583 749.767C180.183 752.192 142.1 735.592 117.9 705.445Z" fill="white"/>
<path d="M256.202 314.468V309.39C256.202 296.517 266.512 285.842 279.8 284.955L376.582 278.492L510.425 475.588V302.603L475.975 298.01V295.6C475.975 282.575 486.52 271.83 499.977 271.14L588.04 266.63V279.303C588.04 285.25 583.615 290.34 577.552 291.365L556.36 294.95V575.093L529.765 584.237C507.545 591.88 482.81 583.7 470.09 564.507L340.152 368.43V555.575L380.145 563.228L379.59 566.937C377.842 578.557 367.81 587.347 355.675 587.887L256.202 592.315C254.887 579.818 264.252 568.64 277.172 567.282L290.257 565.907V316.38L256.202 314.468Z" fill="black"/>
<path fill-rule="evenodd" clip-rule="evenodd" d="M491.872 49.1695L93.0867 76.3962C69.1997 78.0272 50.6835 97.2312 50.6835 120.375V508.247C50.6835 529.992 58.169 551.12 71.9607 568.302L157.945 675.417C171.847 692.735 193.725 702.272 216.359 700.88L658.965 673.635C681.65 672.237 699.31 654.047 699.31 632.08V191.106C699.31 177.515 692.447 164.779 680.922 156.988L540.812 62.2572C526.532 52.6032 509.255 47.9827 491.872 49.1695ZM112.862 126.425C107.315 122.318 109.955 113.764 116.922 113.264L494.555 86.1777C506.587 85.3147 518.542 88.628 528.272 95.522L604.042 149.203C606.917 151.241 605.57 155.641 602.007 155.834L202.097 177.584C189.994 178.242 178.048 174.687 168.425 167.562L112.862 126.425ZM183.339 245.767C183.339 232.775 193.835 222.044 207.257 221.313L630.075 198.286C643.157 197.574 654.167 207.633 654.167 220.295V602.132C654.167 615.1 643.71 625.82 630.315 626.582L210.172 650.487C195.615 651.317 183.339 640.13 183.339 626.037V245.767Z" fill="black"/>
</svg>
